<?xml version="1.0" encoding="UTF-8" standalone="no"?>
<!DOCTYPE svg PUBLIC "-//W3C//DTD SVG 1.1//EN" "http://www.w3.org/Graphics/SVG/1.1/DTD/svg11.dtd">
<svg width="100%" height="100%" viewBox="0 0 591 591" version="1.1" xmlns="http://www.w3.org/2000/svg" xmlns:xlink="http://www.w3.org/1999/xlink" xml:space="preserve" xmlns:serif="http://www.serif.com/" style="fill-rule:evenodd;clip-rule:evenodd;stroke-linejoin:round;stroke-miterlimit:2;">
    <g transform="matrix(1,0,0,1,-4466.82,-1147)">
        <g id="Artboard2" transform="matrix(0.994078,0,0,0.994078,802.253,6.19069)">
            <rect x="3686.4" y="1147.61" width="594.069" height="594.069" style="fill:rgb(128,128,128);fill-opacity:0;"/>
            <clipPath id="_clip1">
                <rect x="3686.4" y="1147.61" width="594.069" height="594.069"/>
            </clipPath>
            <g clip-path="url(#_clip1)">
                <g transform="matrix(0.86481,0,0,0.86481,2203.57,53.4749)">
                    <path d="M2401.57,1440.2L2401.57,1777.07C2401.57,1873.67 2323.14,1952.1 2226.53,1952.1L1889.66,1952.1C1793.06,1952.1 1714.63,1873.67 1714.63,1777.07L1714.63,1440.2C1714.63,1343.6 1793.06,1265.17 1889.66,1265.17L2226.53,1265.17C2323.14,1265.17 2401.57,1343.6 2401.57,1440.2Z" style="fill:rgb(101,0,179);"/>
                    <clipPath id="_clip2">
                        <path d="M2401.57,1440.2L2401.57,1777.07C2401.57,1873.67 2323.14,1952.1 2226.53,1952.1L1889.66,1952.1C1793.06,1952.1 1714.63,1873.67 1714.63,1777.07L1714.63,1440.2C1714.63,1343.6 1793.06,1265.17 1889.66,1265.17L2226.53,1265.17C2323.14,1265.17 2401.57,1343.6 2401.57,1440.2Z"/>
                    </clipPath>
                    <g clip-path="url(#_clip2)">
                        <g transform="matrix(1.16321,0,0,1.35338,-3481.23,-399.455)">
                            <rect x="4466.82" y="1563.61" width="590.551" height="173.939" style="fill:rgb(233,55,0);"/>
                        </g>
                    </g>
                </g>
                <g transform="matrix(4.76335,-0.787729,0.786916,4.75843,-92.0501,-3296.78)">
                    <g transform="matrix(1,0,0,1,-1.1686,0)">
                        <path d="M659.563,1091.48C657.317,1091.48 655.338,1090.98 653.627,1089.98C651.917,1088.99 650.589,1087.46 649.644,1085.42C648.7,1083.38 648.227,1080.79 648.227,1077.66C648.227,1074.48 648.68,1071.87 649.584,1069.84C650.489,1067.81 651.793,1066.3 653.497,1065.31C655.202,1064.32 657.224,1063.82 659.563,1063.82C662.103,1063.82 664.384,1064.39 666.404,1065.53C668.424,1066.67 670.024,1068.27 671.204,1070.34C672.384,1072.41 672.974,1074.85 672.974,1077.66C672.974,1080.47 672.384,1082.91 671.204,1084.98C670.024,1087.04 668.424,1088.64 666.404,1089.78C664.384,1090.91 662.103,1091.48 659.563,1091.48ZM651.496,1100.8C647.188,1100.8 643.696,1097.3 643.696,1092.99L643.696,1064.2L645.623,1064.2C647.083,1064.2 648.483,1064.78 649.515,1065.81C650.548,1066.85 651.127,1068.25 651.127,1069.71C651.127,1069.71 651.127,1069.71 651.127,1069.71L650.996,1077.69L651.496,1085.67L651.496,1100.8L651.496,1100.8ZM658.22,1085.09C659.516,1085.09 660.679,1084.8 661.707,1084.2C662.736,1083.61 663.556,1082.76 664.167,1081.63C664.778,1080.51 665.084,1079.19 665.084,1077.66C665.084,1076.1 664.778,1074.76 664.167,1073.65C663.556,1072.54 662.736,1071.68 661.707,1071.09C660.679,1070.5 659.516,1070.21 658.22,1070.21C656.925,1070.21 655.762,1070.5 654.733,1071.09C653.704,1071.68 652.884,1072.54 652.273,1073.65C651.662,1074.76 651.356,1076.1 651.356,1077.66C651.356,1079.19 651.662,1080.51 652.273,1081.63C652.884,1082.76 653.704,1083.61 654.733,1084.2C655.762,1084.8 656.925,1085.09 658.22,1085.09Z" style="fill:white;fill-rule:nonzero;"/>
                    </g>
                    <g transform="matrix(1,0,0,1,-1.1686,0)">
                        <path d="M685.033,1091.48C681.961,1091.48 679.274,1090.88 676.972,1089.69C674.67,1088.49 672.886,1086.85 671.62,1084.76C670.354,1082.67 669.721,1080.3 669.721,1077.64C669.721,1074.95 670.34,1072.57 671.58,1070.49C672.819,1068.4 674.523,1066.77 676.692,1065.59C678.861,1064.41 681.312,1063.82 684.044,1063.82C686.684,1063.82 689.059,1064.38 691.172,1065.5C693.284,1066.61 694.956,1068.21 696.189,1070.29C697.421,1072.37 698.038,1074.86 698.038,1077.76C698.038,1078.06 698.026,1078.4 698.003,1078.78C698.002,1078.8 698.001,1078.82 697.999,1078.84C697.965,1079.4 697.5,1079.84 696.939,1079.84C692.689,1079.84 676.053,1079.84 676.053,1079.84L676.053,1075.29L693.788,1075.29L690.775,1076.65C690.796,1075.26 690.518,1074.05 689.944,1073.01C689.369,1071.96 688.583,1071.15 687.585,1070.56C686.586,1069.97 685.419,1069.68 684.083,1069.68C682.748,1069.68 681.572,1069.97 680.557,1070.56C679.542,1071.15 678.756,1071.97 678.198,1073.02C677.64,1074.07 677.361,1075.31 677.361,1076.74L677.361,1077.96C677.361,1079.43 677.685,1080.71 678.333,1081.82C678.98,1082.92 679.898,1083.77 681.087,1084.37C682.275,1084.97 683.667,1085.27 685.263,1085.27C686.69,1085.27 687.943,1085.05 689.021,1084.62C689.237,1084.53 689.45,1084.43 689.659,1084.33C691.244,1083.53 693.164,1083.88 694.366,1085.19C695.307,1086.2 696.169,1087.14 696.169,1087.14C694.916,1088.55 693.36,1089.63 691.5,1090.37C689.641,1091.11 687.485,1091.48 685.033,1091.48Z" style="fill:white;fill-rule:nonzero;"/>
                    </g>
                    <g transform="matrix(1,0,0,1,-42.6758,30.0943)">
                        <path d="M712.644,1091.48C710.398,1091.48 708.42,1090.98 706.709,1089.98C704.998,1088.99 703.67,1087.46 702.725,1085.42C701.781,1083.38 701.309,1080.79 701.309,1077.66C701.309,1074.48 701.761,1071.87 702.665,1069.84C703.57,1067.81 704.874,1066.3 706.579,1065.31C708.283,1064.32 710.305,1063.82 712.644,1063.82C715.184,1063.82 717.465,1064.39 719.485,1065.53C721.505,1066.67 723.105,1068.27 724.285,1070.34C725.465,1072.41 726.055,1074.85 726.055,1077.66C726.055,1080.47 725.465,1082.91 724.285,1084.98C723.105,1087.04 721.505,1088.64 719.485,1089.78C717.465,1090.91 715.184,1091.48 712.644,1091.48ZM704.577,1100.8C700.269,1100.8 696.777,1097.3 696.777,1092.99L696.777,1064.2L698.704,1064.2C700.164,1064.2 701.564,1064.78 702.596,1065.81C703.629,1066.85 704.209,1068.25 704.209,1069.71C704.209,1069.71 704.209,1069.71 704.209,1069.71L704.077,1077.69L704.577,1085.67L704.577,1100.8L704.577,1100.8ZM711.302,1085.09C712.597,1085.09 713.76,1084.8 714.788,1084.2C715.817,1083.61 716.637,1082.76 717.248,1081.63C717.859,1080.51 718.165,1079.19 718.165,1077.66C718.165,1076.1 717.859,1074.76 717.248,1073.65C716.637,1072.54 715.817,1071.68 714.788,1071.09C713.76,1070.5 712.597,1070.21 711.302,1070.21C710.006,1070.21 708.843,1070.5 707.814,1071.09C706.786,1071.68 705.966,1072.54 705.354,1073.65C704.743,1074.76 704.438,1076.1 704.438,1077.66C704.438,1079.19 704.743,1080.51 705.354,1081.63C705.966,1082.76 706.786,1083.61 707.814,1084.2C708.843,1084.8 710.006,1085.09 711.302,1085.09Z" style="fill:white;fill-rule:nonzero;"/>
                    </g>
                    <g transform="matrix(1,0,0,1,-42.6758,30.0943)">
                        <path d="M737.555,1091.48C734.705,1091.48 732.172,1090.88 729.955,1089.7C727.738,1088.51 725.992,1086.87 724.716,1084.79C723.44,1082.7 722.802,1080.32 722.802,1077.63C722.802,1074.93 723.442,1072.54 724.722,1070.47C726.002,1068.39 727.746,1066.77 729.954,1065.59C732.163,1064.41 734.696,1063.82 737.555,1063.82C740.414,1063.82 742.956,1064.41 745.183,1065.59C747.409,1066.77 749.153,1068.39 750.415,1070.46C751.678,1072.53 752.309,1074.92 752.309,1077.63C752.309,1080.32 751.679,1082.71 750.419,1084.79C749.16,1086.88 747.413,1088.51 745.179,1089.7C742.945,1090.88 740.404,1091.48 737.555,1091.48ZM737.555,1085.09C738.871,1085.09 740.043,1084.8 741.072,1084.2C742.101,1083.61 742.916,1082.75 743.517,1081.62C744.118,1080.5 744.419,1079.17 744.419,1077.63C744.419,1076.08 744.118,1074.74 743.517,1073.64C742.916,1072.53 742.101,1071.68 741.072,1071.09C740.043,1070.5 738.876,1070.21 737.57,1070.21C736.264,1070.21 735.097,1070.5 734.068,1071.09C733.039,1071.68 732.22,1072.53 731.608,1073.64C730.997,1074.74 730.692,1076.08 730.692,1077.63C730.692,1079.17 730.997,1080.5 731.608,1081.62C732.22,1082.75 733.039,1083.61 734.066,1084.2C735.093,1084.8 736.256,1085.09 737.555,1085.09Z" style="fill:white;fill-rule:nonzero;"/>
                    </g>
                </g>
                <g transform="matrix(2.26478,0,0,2.26478,2318.66,-806.102)">
                    <g transform="matrix(50,0,0,50,640.08,1091.1)">
                        <path d="M-0.014,-0L0.295,-0.7L0.49,-0.7L0.8,-0L0.594,-0L0.352,-0.603L0.43,-0.603L0.188,-0L-0.014,-0ZM0.155,-0.136L0.206,-0.282L0.548,-0.282L0.599,-0.136L0.155,-0.136Z" style="fill:white;fill-rule:nonzero;"/>
                    </g>
                    <g transform="matrix(50,0,0,50,680.356,1091.1)">
                        <path d="M0.07,-0L0.07,-0.7L0.401,-0.7C0.479,-0.7 0.546,-0.686 0.605,-0.657C0.664,-0.628 0.709,-0.588 0.742,-0.536C0.775,-0.484 0.792,-0.422 0.792,-0.35C0.792,-0.279 0.775,-0.217 0.742,-0.164C0.709,-0.112 0.664,-0.072 0.605,-0.043C0.546,-0.014 0.479,-0 0.401,-0L0.07,-0ZM0.268,-0.158L0.393,-0.158C0.433,-0.158 0.468,-0.165 0.498,-0.181C0.527,-0.196 0.55,-0.218 0.567,-0.247C0.584,-0.276 0.592,-0.31 0.592,-0.35C0.592,-0.391 0.584,-0.425 0.567,-0.454C0.55,-0.482 0.527,-0.504 0.498,-0.52C0.468,-0.535 0.433,-0.542 0.393,-0.542L0.268,-0.542L0.268,-0.158Z" style="fill:white;fill-rule:nonzero;"/>
                    </g>
                    <g transform="matrix(50,0,0,50,721.656,1091.1)">
                        <path d="M0.07,-0L0.07,-0.7L0.233,-0.7L0.523,-0.224L0.437,-0.224L0.719,-0.7L0.882,-0.7L0.884,-0L0.702,-0L0.7,-0.423L0.731,-0.423L0.52,-0.069L0.432,-0.069L0.215,-0.423L0.253,-0.423L0.253,-0L0.07,-0Z" style="fill:white;fill-rule:nonzero;"/>
                    </g>
                    <g transform="matrix(50,0,0,50,771.871,1091.1)">
                        <rect x="0.07" y="-0.7" width="0.198" height="0.7" style="fill:white;fill-rule:nonzero;"/>
                    </g>
                    <g transform="matrix(50,0,0,50,791.313,1091.1)">
                        <path d="M0.07,-0L0.07,-0.7L0.233,-0.7L0.619,-0.234L0.542,-0.234L0.542,-0.7L0.736,-0.7L0.736,-0L0.573,-0L0.187,-0.466L0.264,-0.466L0.264,-0L0.07,-0Z" style="fill:white;fill-rule:nonzero;"/>
                    </g>
                    <g transform="matrix(50,0,0,50,831.621,1091.1)">
                    </g>
                </g>
            </g>
        </g>
    </g>
</svg>
